<?xml version="1.0" encoding="UTF-8" standalone="no"?>
<svg
   xmlns:dc="http://purl.org/dc/elements/1.1/"
   xmlns:cc="http://creativecommons.org/ns#"
   xmlns:rdf="http://www.w3.org/1999/02/22-rdf-syntax-ns#"
   xmlns:svg="http://www.w3.org/2000/svg"
   xmlns="http://www.w3.org/2000/svg"
   version="1.1"
   id="svg2"
   width="83.291"
   height="82.546898"
   viewBox="0 0 83.291 82.546899">
  <metadata
     id="metadata8">
    <rdf:RDF>
      <cc:Work
         rdf:about="">
        <dc:format>image/svg+xml</dc:format>
        <dc:type
           rdf:resource="http://purl.org/dc/dcmitype/StillImage" />
        <dc:title></dc:title>
      </cc:Work>
    </rdf:RDF>
  </metadata>
  <defs
     id="defs6" />
  <g
     id="g10"
     transform="translate(-2259.1114,-1564.9992)">
    <g
       id="g976">
      <g
         id="g971">
        <path
           id="rect837"
           style="color:#000000;font-style:normal;font-variant:normal;font-weight:normal;font-stretch:normal;font-size:medium;line-height:normal;font-family:sans-serif;font-variant-ligatures:normal;font-variant-position:normal;font-variant-caps:normal;font-variant-numeric:normal;font-variant-alternates:normal;font-variant-east-asian:normal;font-feature-settings:normal;font-variation-settings:normal;text-indent:0;text-align:start;text-decoration:none;text-decoration-line:none;text-decoration-style:solid;text-decoration-color:#000000;letter-spacing:normal;word-spacing:normal;text-transform:none;writing-mode:lr-tb;direction:ltr;text-orientation:mixed;dominant-baseline:auto;baseline-shift:baseline;text-anchor:start;white-space:normal;shape-padding:0;shape-margin:0;inline-size:0;clip-rule:nonzero;display:inline;overflow:visible;visibility:visible;opacity:1;isolation:auto;mix-blend-mode:normal;color-interpolation:sRGB;color-interpolation-filters:linearRGB;solid-color:#000000;solid-opacity:1;vector-effect:none;fill:#305dfa;fill-opacity:1;fill-rule:nonzero;stroke:none;stroke-linecap:round;stroke-linejoin:round;stroke-miterlimit:4;stroke-dasharray:none;stroke-dashoffset:0;stroke-opacity:1;color-rendering:auto;image-rendering:auto;shape-rendering:auto;text-rendering:auto;enable-background:accumulate;stop-color:#000000;stop-opacity:1"
           d="m 2301.3105,1589.166 c -6.8676,0.049 -12.8289,3.9238 -15.8691,9.5899 -1.3981,2.571 -2.1934,5.5165 -2.1934,8.6445 0,10.0095 8.137,18.1445 18.1465,18.1445 6.191,0 11.6581,-3.1166 14.9336,-7.8594 0.5497,-0.7872 0.9541,-1.5142 1.3516,-2.33 1.2281,-2.479 1.9065,-5.2218 1.9062,-8.045 -5e-4,-10.0075 -8.1335,-18.1418 -18.1406,-18.1445 -0.043,-10e-5 -0.087,-10e-5 -0.1308,0 z m 0.084,2.0879 c 8.9287,0 16.1446,7.2178 16.1446,16.1465 0,1.6124 -0.2396,2.9173 -0.6075,4.3476 -0.6688,2.2469 -1.8285,4.3343 -3.3906,6.125 -1.3538,-3.7963 -4.2921,-6.7641 -7.9844,-8.0605 2.0657,-1.3627 3.4356,-3.7009 3.4356,-6.3516 0,-4.19 -3.4174,-7.6074 -7.6074,-7.6074 -4.1901,0 -7.6094,3.4174 -7.6094,7.6074 0,2.6513 1.3724,4.989 3.4394,6.3516 -3.6609,1.287 -6.5819,4.2189 -7.9511,7.9727 -2.5063,-2.9154 -3.9685,-6.5961 -3.9688,-10.4747 1e-4,-2.7532 0.6883,-5.3441 1.9004,-7.6113 2.732,-5.0323 8.0599,-8.4433 14.1973,-8.4433 z m -0.01,6.5996 c 3.1091,0 5.6074,2.4983 5.6074,5.6074 0,3.1092 -2.4983,5.6075 -5.6074,5.6075 -3.1092,0 -5.6094,-2.4983 -5.6094,-5.6075 0,-3.1091 2.5002,-5.6074 5.6094,-5.6074 z m 0,13.2442 c 5.0963,-4e-4 9.4908,3.4596 10.7324,8.3554 -2.8512,2.5379 -6.5993,4.0918 -10.7246,4.0918 -4.1305,0 -7.8834,-1.5578 -10.7364,-4.1015 1.2466,-4.8929 5.6401,-8.3454 10.7286,-8.3457 z m -21.5371,18.6757 a 1.0001,1.0001 0 0 0 -1,1 v 8.2051 a 1.0001,1.0001 0 0 0 1,1 h 18.7089 a 1.0001,1.0001 0 0 0 1,-1 v -8.2051 a 1.0001,1.0001 0 0 0 -1,-1 z m 24.6367,0 a 1.0001,1.0001 0 0 0 -1,1 v 8.2032 a 1.0001,1.0001 0 0 0 1,1 h 18.709 a 1.0001,1.0001 0 0 0 1,-1 v -8.2032 a 1.0001,1.0001 0 0 0 -1,-1 z m -23.6367,1.9961 h 16.7089 v 6.2051 h -16.7089 z m 24.6367,0 h 16.709 v 6.2032 h -16.709 z" />
      </g>
      <path
         id="rect861"
         style="color:#000000;font-style:normal;font-variant:normal;font-weight:normal;font-stretch:normal;font-size:medium;line-height:normal;font-family:sans-serif;font-variant-ligatures:normal;font-variant-position:normal;font-variant-caps:normal;font-variant-numeric:normal;font-variant-alternates:normal;font-variant-east-asian:normal;font-feature-settings:normal;font-variation-settings:normal;text-indent:0;text-align:start;text-decoration:none;text-decoration-line:none;text-decoration-style:solid;text-decoration-color:#000000;letter-spacing:normal;word-spacing:normal;text-transform:none;writing-mode:lr-tb;direction:ltr;text-orientation:mixed;dominant-baseline:auto;baseline-shift:baseline;text-anchor:start;white-space:normal;shape-padding:0;shape-margin:0;inline-size:0;clip-rule:nonzero;display:inline;overflow:visible;visibility:visible;opacity:1;isolation:auto;mix-blend-mode:normal;color-interpolation:sRGB;color-interpolation-filters:linearRGB;solid-color:#000000;solid-opacity:1;vector-effect:none;fill:#aaafc3;fill-opacity:1;fill-rule:nonzero;stroke:none;stroke-linecap:round;stroke-linejoin:round;stroke-miterlimit:4;stroke-dasharray:none;stroke-dashoffset:0;stroke-opacity:1;color-rendering:auto;image-rendering:auto;shape-rendering:auto;text-rendering:auto;enable-background:accumulate;stop-color:#000000;stop-opacity:1"
         d="m 2273.6153,1564.9992 c -7.9999,0 -14.5039,6.504 -14.5039,14.5039 v 53.5411 c 0,7.9999 6.504,14.5019 14.5039,14.5019 h 54.2852 c 7.9999,0 14.5019,-6.502 14.5019,-14.5019 v -53.5411 c 0,-7.9999 -6.502,-14.5039 -14.5019,-14.5039 z m 0,4 h 54.2852 c 5.8531,0 10.5019,4.6508 10.5019,10.5039 v 1.3243 h -75.291 v -1.3243 c 0,-5.8531 4.6508,-10.5039 10.5039,-10.5039 z m -10.5039,15.8282 h 75.291 v 48.2168 c 0,5.8531 -4.6488,10.5019 -10.5019,10.5019 h -54.2852 c -5.8531,0 -10.5039,-4.6488 -10.5039,-10.5019 z" />
    </g>
  </g>
</svg>
