<?xml version="1.0" encoding="UTF-8" standalone="no"?>
<svg
   xmlns:dc="http://purl.org/dc/elements/1.1/"
   xmlns:cc="http://creativecommons.org/ns#"
   xmlns:rdf="http://www.w3.org/1999/02/22-rdf-syntax-ns#"
   xmlns:svg="http://www.w3.org/2000/svg"
   xmlns="http://www.w3.org/2000/svg"
   version="1.1"
   id="svg2"
   width="83.291"
   height="82.546898"
   viewBox="0 0 83.291 82.546899">
  <metadata
     id="metadata8">
    <rdf:RDF>
      <cc:Work
         rdf:about="">
        <dc:format>image/svg+xml</dc:format>
        <dc:type
           rdf:resource="http://purl.org/dc/dcmitype/StillImage" />
        <dc:title></dc:title>
      </cc:Work>
    </rdf:RDF>
  </metadata>
  <defs
     id="defs6" />
  <g
     id="g10"
     transform="translate(-2259.1114,-1564.9992)">
    <g
       id="g1073"
       transform="translate(1240.1322,-290.68529)">
      <path
         id="rect985"
         style="color:#000000;font-style:normal;font-variant:normal;font-weight:normal;font-stretch:normal;font-size:medium;line-height:normal;font-family:sans-serif;font-variant-ligatures:normal;font-variant-position:normal;font-variant-caps:normal;font-variant-numeric:normal;font-variant-alternates:normal;font-variant-east-asian:normal;font-feature-settings:normal;font-variation-settings:normal;text-indent:0;text-align:start;text-decoration:none;text-decoration-line:none;text-decoration-style:solid;text-decoration-color:#000000;letter-spacing:normal;word-spacing:normal;text-transform:none;writing-mode:lr-tb;direction:ltr;text-orientation:mixed;dominant-baseline:auto;baseline-shift:baseline;text-anchor:start;white-space:normal;shape-padding:0;shape-margin:0;inline-size:0;clip-rule:nonzero;display:inline;overflow:visible;visibility:visible;opacity:1;isolation:auto;mix-blend-mode:normal;color-interpolation:sRGB;color-interpolation-filters:linearRGB;solid-color:#000000;solid-opacity:1;vector-effect:none;fill:#a4a8c0;fill-opacity:1;fill-rule:nonzero;stroke:none;stroke-linecap:round;stroke-linejoin:round;stroke-miterlimit:4;stroke-dasharray:none;stroke-dashoffset:0;stroke-opacity:1;color-rendering:auto;image-rendering:auto;shape-rendering:auto;text-rendering:auto;enable-background:accumulate;stop-color:#000000;stop-opacity:1"
         d="m 1043.7598,1856.9062 v 0.092 h -1.459 c -5.154,0 -9.3653,4.2113 -9.3653,9.3653 v 61.1972 c 0,5.154 4.2107,9.3672 9.3653,9.3672 h 32.5898 c 5.1546,0 9.3672,-4.2125 9.3672,-9.3672 v -19.1152 h 8.9766 c 3.3493,0 6.1074,-2.7601 6.1074,-6.1094 v -18.5586 c 0,-3.3491 -2.7581,-6.1093 -6.1074,-6.1093 h -8.9766 v -11.3047 c 0,-5.1546 -4.2132,-9.3653 -9.3672,-9.3653 h -3.0761 v -0.092 z m 7.2754,4 h 15.1796 v 0.7129 c 0,1.203 -0.9045,2.1075 -2.1074,2.1075 h -10.9629 c -1.2027,0 -2.1093,-0.9057 -2.1093,-2.1075 z m -8.7344,0.092 h 4.7344 v 0.6211 c 0,3.3501 2.7604,6.1075 6.1093,6.1075 h 10.9629 c 3.349,0 6.1074,-2.7586 6.1074,-6.1075 v -0.6211 h 4.6758 c 3.0078,0 5.3672,2.3581 5.3672,5.3653 v 11.3047 H 1060.75 c -3.3493,0 -6.1094,2.7601 -6.1094,6.1093 v 18.5586 c 0,2.3052 0.051,8.0866 0.035,10.7813 a 2.0002,2.0002 0 0 0 3.1719,1.6308 l 8.705,-6.3027 h 13.7051 v 19.1152 c 0,3.0072 -2.36,5.3672 -5.3672,5.3672 h -32.5898 c -3.0072,0 -5.3653,-2.3593 -5.3653,-5.3672 v -61.1972 c 0,-3.0078 2.3575,-5.3653 5.3653,-5.3653 z m 18.4492,20.67 h 32.4844 c 1.2025,0 2.1074,0.9069 2.1074,2.1093 v 18.5586 c 0,1.2026 -0.9049,2.1094 -2.1074,2.1094 h -27.3301 a 2.0002,2.0002 0 0 0 -1.1719,0.3789 l -6.0703,4.3946 c -0.011,-2.6094 -0.022,-5.4517 -0.022,-6.8829 v -18.5586 c 0,-1.2023 0.9069,-2.1093 2.1094,-2.1093 z m -8.3516,42.3496 v 4 h 12.4434 v -4 z" />
      <path
         id="path992-3"
         style="color:#000000;font-style:normal;font-variant:normal;font-weight:normal;font-stretch:normal;font-size:medium;line-height:normal;font-family:sans-serif;font-variant-ligatures:normal;font-variant-position:normal;font-variant-caps:normal;font-variant-numeric:normal;font-variant-alternates:normal;font-variant-east-asian:normal;font-feature-settings:normal;font-variation-settings:normal;text-indent:0;text-align:start;text-decoration:none;text-decoration-line:none;text-decoration-style:solid;text-decoration-color:#000000;letter-spacing:normal;word-spacing:normal;text-transform:none;writing-mode:lr-tb;direction:ltr;text-orientation:mixed;dominant-baseline:auto;baseline-shift:baseline;text-anchor:start;white-space:normal;shape-padding:0;shape-margin:0;inline-size:0;clip-rule:nonzero;display:inline;overflow:visible;visibility:visible;opacity:1;isolation:auto;mix-blend-mode:normal;color-interpolation:sRGB;color-interpolation-filters:linearRGB;solid-color:#000000;solid-opacity:1;vector-effect:none;fill:#315dfc;fill-opacity:1;fill-rule:nonzero;stroke:none;stroke-linecap:butt;stroke-linejoin:miter;stroke-miterlimit:4;stroke-dasharray:none;stroke-dashoffset:0;stroke-opacity:1;color-rendering:auto;image-rendering:auto;shape-rendering:auto;text-rendering:auto;enable-background:accumulate;stop-color:#000000;stop-opacity:1"
         d="m 1065.3672,1886.7188 v 4 h 23.5039 v -4 z m 11.1348,8.0937 v 4 h 12.4453 v -4 z" />
    </g>
  </g>
</svg>
